<?xml version="1.0" encoding="utf-8"?>
<svg viewBox="0 0 48 48" xmlns="http://www.w3.org/2000/svg">
  <path fill="#bdbdbd" d="M 23.936 0 L 1.1 7.947 L 4.709 37.536 L 23.96 48 L 43.311 37.394 L 46.918 7.807 Z"/>
  <path fill="#b71c1c" d="M 44.538 9.302 L 24.009 2.329 L 24.009 45.485 L 41.28 36.019 Z"/>
  <path fill="#dd2c00" d="M 23.945 2.307 L 3.479 9.43 L 6.738 36.156 L 23.956 45.514 L 24.009 45.485 L 24.009 2.329 Z"/>
  <path fill="#bdbdbd" d="M 24.009 4.359 L 24.009 14.732 L 33.367 34.909 L 38.177 34.909 Z"/>
  <path fill="#eee" d="M 9.841 34.909 L 14.651 34.909 L 24.009 14.732 L 24.009 4.359 Z"/>
  <path fill="#bdbdbd" d="M 24.009 24 L 30.555 24 L 30.555 28.364 L 24.009 28.364 Z"/>
  <path fill="#eee" d="M 17.464 24 L 24.009 24 L 24.009 28.364 L 17.464 28.364 Z"/>
</svg>