<svg width="48" height="48" viewBox="0 0 48 48" fill="none" xmlns="http://www.w3.org/2000/svg">
<path d="M13.6685 18.9848C13.6685 19.563 13.731 20.0318 13.8404 20.3756C13.9654 20.7194 14.1217 21.0944 14.3405 21.5007C14.4186 21.6258 14.4499 21.7508 14.4499 21.8602C14.4499 22.0164 14.3561 22.1727 14.153 22.329L13.1685 22.9853C13.0278 23.0791 12.8872 23.126 12.7622 23.126C12.6059 23.126 12.4496 23.0478 12.2933 22.9072C12.0746 22.6728 11.887 22.4228 11.7308 22.1727C11.5745 21.9071 11.4182 21.6101 11.2463 21.2507C10.0274 22.6884 8.49595 23.4073 6.65195 23.4073C5.33927 23.4073 4.29225 23.0322 3.52652 22.2821C2.7608 21.532 2.37012 20.5319 2.37012 19.2817C2.37012 17.9534 2.83893 16.8751 3.79219 16.0625C4.74544 15.2499 6.01124 14.8436 7.62083 14.8436C8.15215 14.8436 8.6991 14.8905 9.2773 14.9686C9.85551 15.0467 10.4493 15.1718 11.0744 15.3124V14.1716C11.0744 12.984 10.8244 12.1557 10.3399 11.6713C9.83988 11.1868 8.99602 10.9524 7.79273 10.9524C7.24578 10.9524 6.6832 11.015 6.105 11.1556C5.5268 11.2962 4.96422 11.4681 4.41727 11.6869C4.16724 11.7963 3.97971 11.8588 3.87032 11.8901C3.76093 11.9213 3.6828 11.937 3.62029 11.937C3.40151 11.937 3.29212 11.7807 3.29212 11.4525V10.6868C3.29212 10.4367 3.32337 10.2492 3.40151 10.1398C3.47964 10.0304 3.62029 9.92105 3.83907 9.81166C4.38602 9.53038 5.04235 9.29597 5.80808 9.10844C6.57381 8.90529 7.38642 8.81153 8.24591 8.81153C10.1055 8.81153 11.4651 9.23346 12.3402 10.0773C13.1997 10.9212 13.6373 12.2026 13.6373 13.9216V18.9848H13.6685ZM7.32391 21.3601C7.83961 21.3601 8.37093 21.2663 8.93351 21.0788C9.49608 20.8913 9.99615 20.5475 10.4181 20.0787C10.6681 19.7818 10.8556 19.4536 10.9494 19.0785C11.0432 18.7035 11.1057 18.2503 11.1057 17.719V17.0626C10.6525 16.9533 10.168 16.8595 9.66798 16.797C9.16791 16.7345 8.68347 16.7032 8.19903 16.7032C7.15202 16.7032 6.38629 16.9064 5.87059 17.3283C5.3549 17.7502 5.10486 18.3441 5.10486 19.1254C5.10486 19.8599 5.29239 20.4069 5.68307 20.7819C6.05812 21.1726 6.60507 21.3601 7.32391 21.3601ZM19.8725 23.0478C19.5912 23.0478 19.4037 23.001 19.2787 22.8916C19.1536 22.7978 19.0443 22.579 18.9505 22.2821L15.2781 10.2023C15.1844 9.8898 15.1375 9.68665 15.1375 9.57726C15.1375 9.32722 15.2625 9.18658 15.5125 9.18658H17.044C17.3409 9.18658 17.5441 9.23346 17.6534 9.34285C17.7785 9.43661 17.8722 9.65539 17.966 9.95231L20.5913 20.2975L23.0292 9.95231C23.1073 9.63977 23.2011 9.43661 23.3261 9.34285C23.4511 9.24909 23.6699 9.18658 23.9512 9.18658H25.2013C25.4983 9.18658 25.7014 9.23346 25.8264 9.34285C25.9514 9.43661 26.0608 9.65539 26.1233 9.95231L28.5924 20.4225L31.2959 9.95231C31.3897 9.63977 31.4991 9.43661 31.6085 9.34285C31.7335 9.24909 31.9366 9.18658 32.2179 9.18658H33.6712C33.9213 9.18658 34.0619 9.3116 34.0619 9.57726C34.0619 9.65539 34.0463 9.73353 34.0307 9.82729C34.015 9.92105 33.9838 10.0461 33.9213 10.218L30.1551 22.2977C30.0614 22.6103 29.952 22.8134 29.827 22.9072C29.7019 23.001 29.4988 23.0635 29.2331 23.0635H27.8892C27.5923 23.0635 27.3891 23.0166 27.2641 22.9072C27.1391 22.7978 27.0297 22.5946 26.9672 22.2821L24.545 12.2026L22.1384 22.2665C22.0603 22.579 21.9665 22.7822 21.8415 22.8916C21.7165 23.001 21.4977 23.0478 21.2164 23.0478H19.8725ZM39.9533 23.4698C39.1407 23.4698 38.3281 23.376 37.5468 23.1885C36.7654 23.001 36.1559 22.7978 35.7496 22.5634C35.4996 22.4228 35.3277 22.2665 35.2652 22.1258C35.2027 21.9852 35.1714 21.8289 35.1714 21.6883V20.8913C35.1714 20.5631 35.2965 20.4069 35.5309 20.4069C35.6246 20.4069 35.7184 20.4225 35.8122 20.4537C35.9059 20.485 36.0466 20.5475 36.2028 20.61C36.7342 20.8444 37.3124 21.0319 37.9218 21.157C38.5469 21.282 39.1564 21.3445 39.7814 21.3445C40.7659 21.3445 41.5317 21.1726 42.063 20.8288C42.5943 20.485 42.8756 19.9849 42.8756 19.3442C42.8756 18.9066 42.735 18.5472 42.4537 18.2503C42.1724 17.9534 41.6411 17.6877 40.8753 17.4377L38.6094 16.7345C37.4686 16.3751 36.6248 15.8437 36.1091 15.1405C35.5934 14.4529 35.3277 13.6872 35.3277 12.8746C35.3277 12.2182 35.4684 11.64 35.7496 11.14C36.0309 10.6399 36.406 10.2023 36.8748 9.85854C37.3436 9.49912 37.8749 9.23346 38.5 9.04593C39.1251 8.85841 39.7814 8.78027 40.469 8.78027C40.8128 8.78027 41.1723 8.7959 41.5161 8.84278C41.8755 8.88966 42.2036 8.95217 42.5318 9.01468C42.8444 9.09282 43.1413 9.17095 43.4226 9.26471C43.7038 9.35848 43.9226 9.45224 44.0789 9.546C44.2977 9.67102 44.4539 9.79604 44.5477 9.93668C44.6415 10.0617 44.6884 10.2336 44.6884 10.4524V11.1868C44.6884 11.515 44.5633 11.6869 44.3289 11.6869C44.2039 11.6869 44.0008 11.6244 43.7351 11.4994C42.8444 11.0931 41.8442 10.8899 40.7347 10.8899C39.8439 10.8899 39.1407 11.0306 38.6563 11.3275C38.1718 11.6244 37.9218 12.0776 37.9218 12.7183C37.9218 13.1559 38.0781 13.5309 38.3906 13.8278C38.7032 14.1247 39.2814 14.4217 40.1096 14.6873L42.3287 15.3905C43.4538 15.75 44.2664 16.25 44.7509 16.8907C45.2353 17.5315 45.4697 18.2659 45.4697 19.0785C45.4697 19.7505 45.3291 20.36 45.0634 20.8913C44.7821 21.4226 44.4071 21.8914 43.9226 22.2665C43.4382 22.6572 42.86 22.9384 42.188 23.1416C41.4848 23.3604 40.7503 23.4698 39.9533 23.4698Z" fill="#252F3E"/>
<path fill-rule="evenodd" clip-rule="evenodd" d="M42.9063 31.0651C37.765 34.8625 30.2952 36.8784 23.8724 36.8784C14.8712 36.8784 6.76075 33.5498 0.634914 28.0178C0.150473 27.5802 0.588032 26.9864 1.16624 27.3302C7.79214 31.1745 15.9651 33.5029 24.4194 33.5029C30.1233 33.5029 36.3898 32.3153 42.1562 29.8774C43.0157 29.4868 43.7501 30.44 42.9063 31.0651Z" fill="#FF9900"/>
<path fill-rule="evenodd" clip-rule="evenodd" d="M45.0479 28.6275C44.3915 27.7836 40.7035 28.2212 39.0314 28.4244C38.5314 28.4869 38.4532 28.0493 38.9064 27.7211C41.8443 25.6584 46.6731 26.2522 47.2357 26.9398C47.7983 27.643 47.0794 32.4718 44.329 34.7846C43.9071 35.144 43.5008 34.9565 43.6883 34.4877C44.3134 32.9406 45.7042 29.4557 45.0479 28.6275Z" fill="#FF9900"/>
</svg>
