<?xml version="1.0" encoding="utf-8"?>
<svg viewBox="0 0 48 48" xmlns="http://www.w3.org/2000/svg">
  <path fill="#1565c0" d="M 7.78 8.898 L 11.551 40.32 L 1.472 30.241 C -0.022 28.747 -0.423 26.475 0.472 24.56 L 7.78 8.898 Z"/>
  <path fill="#42a5f5" d="M 29.548 1.758 C 28.485 0.696 27.047 0.1 25.546 0.1 C 24.61 0.1 23.687 0.332 22.863 0.776 L 7.78 8.898 L 7.78 34.466 C 7.78 35.8 8.309 37.078 9.254 38.021 L 11.551 40.32 L 39.202 40.32 L 39.202 34.035 L 48 20.209 L 29.548 1.758 Z"/>
  <path fill="#1565c0" d="M 7.78 8.898 L 34.606 8.898 C 35.939 8.898 37.218 9.427 38.16 10.371 L 48 20.209 L 48 40.32 L 39.202 40.32 L 7.78 8.898 Z"/>
  <polygon fill="#85cbf8" points="39.202 40.32 11.551 40.32 19.092 47.861 39.202 47.861"/>
</svg>