<svg width="48" height="48" viewBox="0 0 48 48" fill="none" xmlns="http://www.w3.org/2000/svg">
<path d="M31.7673 15.4014L35.9196 11.2491L36.1954 9.50144C28.63 2.62031 16.6027 3.40149 9.78053 11.1291C7.88548 13.2747 6.48104 15.9509 5.73145 18.7156L7.21801 18.505L15.5225 17.1364L16.1626 16.4815C19.8559 12.424 26.1032 11.8787 30.3671 15.3298L31.7673 15.4014Z" fill="#EA4335"/>
<path d="M41.8361 18.592C40.8823 15.0778 38.922 11.9172 36.1973 9.5L30.369 15.3283C32.8304 17.3392 34.2307 20.3671 34.1717 23.5444V24.5783C37.0353 24.5783 39.3578 26.9008 39.3578 29.7644C39.3578 32.628 37.0353 34.8937 34.1717 34.8937H23.7847L22.7656 36.0012V42.2233L23.7847 43.2003H34.1717C41.6214 43.2592 47.7087 37.3235 47.7676 29.8739C47.8034 25.3573 45.5757 21.123 41.8361 18.592Z" fill="#4285F4"/>
<path d="M13.4101 43.2005H23.7845V34.896H13.4101C12.6753 34.896 11.9509 34.736 11.2835 34.4307L9.81164 34.8813L5.6299 39.0335L5.26562 40.4464C7.61127 42.2172 10.4728 43.2132 13.4101 43.2005Z" fill="#34A853"/>
<path d="M13.4109 16.2608C5.95912 16.305 -0.0439751 22.3818 0.000242715 29.8336C0.02551 33.9943 1.96899 37.9107 5.26637 40.448L11.2842 34.4301C8.67325 33.251 7.51306 30.1789 8.6922 27.5679C9.87134 24.957 12.9434 23.7968 15.5544 24.9759C16.704 25.496 17.6263 26.4162 18.1464 27.5679L24.1642 21.5501C21.6038 18.2022 17.6242 16.2461 13.4109 16.2608Z" fill="#FBBC05"/>
</svg>
