<?xml version="1.0" encoding="utf-8"?>
<svg viewBox="0 0 48 48" xmlns="http://www.w3.org/2000/svg">
  <path fill="#F4511E" d="M 46.989 21.6 L 26.4 1.011 C 25.768 0.379 24.884 0 24 0 C 24 0 24 0 24 0 C 23.116 0 22.232 0.379 21.6 1.011 L 17.179 5.432 L 22.358 10.611 C 22.863 10.358 23.368 10.232 24 10.232 C 26.147 10.232 27.789 11.874 27.789 14.021 C 27.789 14.653 27.663 15.158 27.411 15.663 L 32.463 20.716 C 32.968 20.463 33.474 20.337 34.105 20.337 C 36.253 20.337 37.895 21.979 37.895 24.126 C 37.895 26.274 36.253 27.916 34.105 27.916 C 31.958 27.916 30.316 26.274 30.316 24.126 C 30.316 23.495 30.442 22.989 30.695 22.484 L 25.642 17.432 C 25.516 17.432 25.389 17.558 25.263 17.558 L 25.263 30.695 C 26.779 31.2 27.789 32.589 27.789 34.232 C 27.789 36.379 26.147 38.021 24 38.021 C 21.853 38.021 20.211 36.379 20.211 34.232 C 20.211 32.589 21.221 31.2 22.737 30.695 L 22.737 17.432 C 21.221 16.926 20.211 15.537 20.211 13.895 C 20.211 13.263 20.337 12.758 20.589 12.253 L 15.411 7.074 L 1.011 21.6 C 0.379 22.232 0 23.116 0 24 C 0 24.884 0.379 25.768 1.011 26.4 L 21.6 46.989 C 21.6 46.989 21.6 46.989 21.6 46.989 C 22.232 47.621 23.116 48 24 48 C 24.884 48 25.768 47.621 26.4 46.989 L 46.989 26.4 C 47.621 25.768 48 24.884 48 24 C 48 23.116 47.621 22.232 46.989 21.6 Z"/>
</svg>