<?xml version="1.0" encoding="utf-8"?>
<svg viewBox="0 0 48 48" xmlns="http://www.w3.org/2000/svg">
  <path fill="#388e3c" d="M 17.204 21.622 L 12.297 24.337 C 12.113 24.438 12 24.626 12 24.829 L 12 30.262 C 12 30.465 12.113 30.652 12.297 30.754 L 17.205 33.471 C 17.388 33.572 17.615 33.572 17.798 33.471 L 22.705 30.754 C 22.887 30.652 23 30.465 23 30.262 L 23 24.829 C 23 24.626 22.887 24.439 22.703 24.337 L 17.797 21.622 C 17.705 21.571 17.602 21.546 17.5 21.546 C 17.397 21.546 17.295 21.571 17.203 21.622 M 42.451 26.513 L 41.633 26.965 C 41.602 26.982 41.584 27.013 41.584 27.047 L 41.584 27.953 C 41.584 27.987 41.603 28.018 41.633 28.035 L 42.451 28.488 C 42.482 28.505 42.519 28.505 42.55 28.488 L 43.368 28.035 C 43.398 28.018 43.417 27.987 43.417 27.953 L 43.417 27.047 C 43.417 27.013 43.398 26.982 43.367 26.965 L 42.549 26.513 C 42.534 26.504 42.517 26.5 42.5 26.5 C 42.483 26.5 42.466 26.504 42.451 26.513"/>
  <path fill="#37474f" d="M 35.751 15.864 L 33.362 14.531 C 33.287 14.489 33.195 14.49 33.121 14.534 C 33.047 14.578 33.001 14.657 33.001 14.743 L 33 22.795 L 30.797 21.576 C 30.705 21.525 30.602 21.5 30.5 21.5 C 30.398 21.5 30.295 21.525 30.203 21.576 L 30.204 21.576 L 25.297 24.291 C 25.113 24.392 25 24.58 25 24.782 L 25 30.215 C 25 30.418 25.113 30.605 25.297 30.707 L 30.205 33.424 C 30.388 33.525 30.615 33.525 30.798 33.424 L 35.705 30.707 C 35.887 30.606 36 30.418 36 30.215 L 36 16.288 C 36 16.112 35.904 15.95 35.751 15.864 Z M 32.866 28.958 L 30.636 30.193 C 30.553 30.239 30.45 30.239 30.367 30.193 L 28.136 28.958 C 28.051 28.912 28 28.826 28 28.734 L 28 26.264 C 28 26.172 28.051 26.087 28.135 26.04 L 30.366 24.806 L 30.365 24.806 C 30.407 24.783 30.453 24.772 30.5 24.772 C 30.547 24.772 30.593 24.784 30.635 24.806 L 32.865 26.04 C 32.949 26.087 33 26.173 33 26.265 L 33 28.735 C 33 28.826 32.949 28.912 32.866 28.958 Z"/>
  <path fill="#2e7d32" d="M 17.204 21.622 L 12 30.262 C 12 30.465 12.113 30.652 12.297 30.754 L 17.205 33.471 C 17.388 33.572 17.615 33.572 17.798 33.471 L 23 24.829 C 23 24.626 22.887 24.439 22.703 24.337 L 17.797 21.622 C 17.705 21.571 17.602 21.546 17.5 21.546 C 17.397 21.546 17.295 21.571 17.203 21.622"/>
  <path fill="#4caf50" d="M 17.204 21.622 L 12.297 24.337 C 12.113 24.438 12 24.626 12 24.829 L 17.204 33.471 C 17.387 33.572 17.614 33.572 17.797 33.471 L 22.704 30.754 C 22.887 30.652 23 30.465 23 30.262 L 17.797 21.622 C 17.705 21.571 17.602 21.546 17.5 21.546 C 17.397 21.546 17.295 21.571 17.203 21.622"/>
  <path fill="#37474f" d="M 47.703 24.291 L 42.797 21.576 C 42.705 21.525 42.602 21.5 42.5 21.5 C 42.398 21.5 42.295 21.525 42.203 21.576 L 42.204 21.576 L 37.297 24.291 C 37.114 24.392 37 24.584 37 24.794 L 37 30.205 C 37 30.414 37.114 30.607 37.297 30.708 L 42.205 33.425 C 42.389 33.527 42.614 33.527 42.798 33.425 L 45.061 32.172 C 45.268 32.057 45.267 31.76 45.059 31.646 L 40.135 28.959 C 40.052 28.912 40 28.825 40 28.731 L 40 26.265 C 40 26.173 40.05 26.088 40.13 26.044 L 42.365 24.808 L 42.364 24.808 C 42.406 24.785 42.452 24.774 42.499 24.774 C 42.546 24.774 42.592 24.786 42.634 24.808 L 44.869 26.045 C 44.949 26.089 44.999 26.174 44.999 26.266 L 44.999 28.278 C 44.999 28.364 45.045 28.444 45.12 28.487 C 45.195 28.529 45.287 28.529 45.362 28.486 L 47.76 27.093 C 47.908 27.007 48 26.848 48 26.676 L 48 24.796 C 48 24.585 47.886 24.392 47.703 24.291 Z M 10.703 24.291 L 5.797 21.576 C 5.705 21.525 5.602 21.5 5.5 21.5 C 5.398 21.5 5.295 21.525 5.203 21.576 L 5.204 21.576 L 0.297 24.291 C 0.114 24.392 0 24.584 0 24.794 L 0 32.259 C 0 32.345 0.046 32.425 0.121 32.468 C 0.196 32.51 0.288 32.51 0.363 32.467 L 2.761 31.074 C 2.909 30.988 3 30.829 3 30.657 L 3 26.264 C 3 26.172 3.05 26.087 3.13 26.043 L 5.365 24.807 L 5.365 24.807 C 5.407 24.784 5.453 24.773 5.5 24.773 C 5.547 24.773 5.593 24.785 5.635 24.807 L 7.87 26.044 C 7.95 26.088 8 26.173 8 26.265 L 8 30.658 C 8 30.83 8.091 30.989 8.24 31.075 L 10.638 32.468 C 10.713 32.511 10.805 32.511 10.88 32.469 C 10.954 32.425 11 32.345 11 32.259 L 11 24.795 C 11 24.585 10.886 24.392 10.703 24.291 Z"/>
</svg>