<svg width="48" height="48" viewBox="0 0 48 48" fill="none" xmlns="http://www.w3.org/2000/svg">
<path d="M45.8854 28.4375C45.6242 27.6463 44.9399 27.0953 44.0549 26.9631C43.6377 26.9008 43.1598 26.9273 42.5943 27.0439C41.6086 27.2473 40.8774 27.3247 40.3437 27.3397C42.3581 23.9387 43.9961 20.0603 44.939 16.4095C46.4638 10.5061 45.649 7.8168 44.6969 6.60036C42.177 3.38058 38.5007 1.65089 34.0655 1.59796C31.6995 1.56903 29.6224 2.03617 28.5389 2.3721C27.5301 2.1941 26.4454 2.09471 25.3072 2.07633C23.1737 2.0423 21.2886 2.5074 19.6779 3.46329C18.7861 3.16173 17.3549 2.73663 15.7022 2.46536C11.8149 1.82719 8.68196 2.32445 6.39033 3.94336C3.6154 5.90348 2.32902 9.30909 2.56693 14.0656C2.64249 15.5758 3.48726 20.1706 4.81737 24.5282C5.58181 27.0329 6.39697 29.1128 7.2402 30.7108C8.43605 32.9767 9.71562 34.3111 11.1521 34.7903C11.9572 35.0585 13.4201 35.2464 14.9587 33.9649C15.1537 34.2011 15.4139 34.4358 15.7592 34.6538C16.1977 34.9303 16.734 35.1563 17.2695 35.2903C19.1995 35.7727 21.0073 35.6521 22.5496 34.9758C22.5592 35.2501 22.5665 35.5122 22.5726 35.7385C22.5828 36.1056 22.593 36.4655 22.6065 36.8021C22.6979 39.0781 22.8527 40.8478 23.3115 42.086C23.3367 42.1541 23.3706 42.2579 23.4063 42.368C23.6352 43.0688 24.0179 44.242 24.9917 45.1608C26 46.1126 27.2197 46.4045 28.3367 46.4045C28.897 46.4045 29.4315 46.3309 29.9003 46.2305C31.5715 45.8723 33.4695 45.3267 34.8425 43.3717C36.1406 41.5236 36.7716 38.74 36.8858 34.3539C36.9006 34.2299 36.9142 34.1114 36.9274 33.9986L36.9546 33.7668L37.2604 33.7937L37.3392 33.799C39.0413 33.8766 41.1226 33.5156 42.4008 32.9219C43.4108 32.4532 46.6474 30.7445 45.8854 28.4375Z" fill="black"/>
<path d="M42.9741 28.8858C37.913 29.9298 37.565 28.2163 37.565 28.2163C42.9086 20.2872 45.1425 10.2223 43.2149 7.75896C37.9557 1.03945 28.852 4.21737 28.7001 4.29974L28.6512 4.30858C27.6513 4.10097 26.5323 3.97742 25.2745 3.95683C22.9846 3.91939 21.2474 4.55722 19.9292 5.55684C19.9292 5.55684 3.68908 -1.13356 4.44451 13.9712C4.60515 17.1845 9.05022 38.2851 14.352 31.9117C16.2898 29.5811 18.1623 27.6106 18.1623 27.6106C19.0921 28.2284 20.2054 28.5436 21.3725 28.4304L21.4632 28.3535C21.435 28.6428 21.4479 28.9258 21.4995 29.2609C20.1336 30.7868 20.5351 31.0547 17.8047 31.6168C15.0419 32.1862 16.6649 33.1998 17.7246 33.4649C19.0092 33.7861 21.9812 34.2411 23.9893 31.4299L23.9094 31.7507C24.4444 32.1794 24.8202 34.5388 24.7572 36.6777C24.6942 38.8166 24.6522 40.285 25.0737 41.432C25.4956 42.579 25.9158 45.1598 29.5052 44.3908C32.5042 43.748 34.0585 42.0825 34.2748 39.3041C34.4281 37.329 34.7754 37.621 34.7972 35.8551L35.0758 35.0192C35.3969 32.3418 35.1269 31.4779 36.9745 31.8797L37.4238 31.9192C38.7835 31.981 40.5636 31.7004 41.6083 31.2148C43.8577 30.171 45.1919 28.4278 42.9738 28.8858H42.9741Z" fill="#336791"/>
<path d="M20.88 15.4081C20.4239 15.3447 20.0108 15.4034 19.8019 15.5616C19.6844 15.6506 19.648 15.7538 19.6382 15.8247C19.612 16.0128 19.7437 16.2207 19.8247 16.3279C20.0537 16.6315 20.3883 16.8402 20.7195 16.8861C20.7675 16.8929 20.8153 16.896 20.8628 16.896C21.415 16.896 21.9172 16.466 21.9614 16.1486C22.0167 15.751 21.4397 15.4859 20.88 15.4081ZM35.9891 15.4207C35.9455 15.1091 35.3911 15.0203 34.8649 15.0935C34.3394 15.1666 33.8299 15.4039 33.8724 15.7161C33.9064 15.959 34.345 16.3735 34.864 16.3735C34.9079 16.3735 34.9522 16.3707 34.9968 16.3644C35.3433 16.3164 35.5975 16.0963 35.7183 15.9695C35.9021 15.7762 36.0087 15.5608 35.9891 15.4207Z" fill="white"/>
<path d="M44.6591 28.7672C44.4661 28.1836 43.8449 27.9959 42.813 28.209C39.7489 28.8414 38.6516 28.4033 38.2913 28.138C40.673 24.5098 42.6322 20.124 43.6892 16.032C44.1899 14.0937 44.4664 12.2936 44.4891 10.8263C44.5141 9.21588 44.2397 8.03246 43.6741 7.30954C41.3933 4.39523 38.0459 2.83197 33.994 2.78909C31.2083 2.75777 28.8547 3.47065 28.3985 3.67112C27.4377 3.43219 26.3902 3.2855 25.2499 3.26678C23.1587 3.23291 21.3511 3.73358 19.8545 4.75414C19.2044 4.51214 17.5244 3.93541 15.4699 3.60441C11.9179 3.03261 9.09531 3.46589 7.08107 4.89283C4.67764 6.59564 3.56808 9.63945 3.78301 13.9395C3.85534 15.3862 4.67968 19.8367 5.98053 24.0989C7.69287 29.7086 9.55428 32.8843 11.5127 33.5376C11.7419 33.614 12.0062 33.6675 12.2977 33.6675C13.0121 33.6675 13.888 33.3455 14.7994 32.2499C15.9109 30.9165 17.0607 29.6154 18.2473 28.3484C19.0172 28.7616 19.863 28.9923 20.728 29.0155C20.7297 29.0381 20.732 29.0607 20.734 29.0832C20.5851 29.2608 20.4393 29.4409 20.2966 29.6235C19.6973 30.3844 19.5725 30.5428 17.6432 30.94C17.0944 31.0534 15.6368 31.3537 15.6154 32.3755C15.5922 33.4919 17.3384 33.9607 17.5374 34.0104C18.2307 34.184 18.8986 34.2696 19.5356 34.2696C21.0847 34.2696 22.448 33.7604 23.5375 32.7752C23.504 36.755 23.6699 40.6766 24.1478 41.8715C24.5392 42.8496 25.4953 45.2401 28.5152 45.24C28.9584 45.24 29.4461 45.1884 29.9827 45.0734C33.1346 44.3978 34.5033 43.0047 35.0327 39.9335C35.3161 38.2921 35.8023 34.3727 36.031 32.2703C36.5136 32.4209 37.135 32.4898 37.8067 32.4897C39.2076 32.4897 40.8241 32.192 41.8378 31.7215C42.9767 31.1926 45.0318 29.8948 44.6591 28.7672ZM37.1532 14.5607C37.1428 15.1813 37.0574 15.7448 36.9668 16.3329C36.8693 16.9655 36.7686 17.6195 36.7432 18.4134C36.7182 19.186 36.8147 19.9892 36.9079 20.7661C37.0965 22.3351 37.29 23.9505 36.541 25.5443C36.4166 25.3239 36.3058 25.0961 36.2092 24.8621C36.1161 24.6364 35.9139 24.274 35.634 23.7723C34.545 21.8193 31.9949 17.2459 33.3003 15.3798C33.6892 14.8243 34.676 14.2532 37.1532 14.5607ZM34.1505 4.04586C37.7811 4.12601 40.6531 5.4842 42.6864 8.08249C44.2459 10.0755 42.5286 19.1438 37.5572 26.967C37.5072 26.9035 37.4569 26.8401 37.4064 26.777L37.3434 26.6983C38.6281 24.5767 38.3769 22.4776 38.1533 20.6165C38.0614 19.8527 37.9746 19.1313 37.9967 18.4537C38.0195 17.7355 38.1145 17.1195 38.2064 16.5239C38.3192 15.7899 38.4341 15.0304 38.4024 14.1351C38.4261 14.0411 38.4356 13.9302 38.4232 13.7985C38.3424 12.9399 37.3621 10.3704 35.3643 8.04471C34.2714 6.77263 32.6776 5.34908 30.5016 4.38894C31.4375 4.19493 32.7175 4.01403 34.1505 4.04586ZM13.835 31.448C12.8309 32.6553 12.1376 32.4238 11.9096 32.3479C10.4239 31.8524 8.69998 28.7122 7.18012 23.7328C5.86498 19.4242 5.09645 15.0916 5.03553 13.8767C4.84356 10.0344 5.77495 7.35668 7.80399 5.91765C11.1061 3.57599 16.5352 4.97758 18.7167 5.68842C18.6854 5.71939 18.6527 5.74832 18.6217 5.77981C15.0419 9.39508 15.1268 15.5719 15.1356 15.9495C15.1353 16.0952 15.1475 16.3014 15.1642 16.5851C15.2258 17.6241 15.3405 19.5576 15.0342 21.7473C14.7497 23.7821 15.3769 25.7737 16.7549 27.2116C16.8963 27.3589 17.0449 27.499 17.2002 27.6316C16.5869 28.2885 15.2539 29.7411 13.835 31.448ZM17.6604 26.3438C16.5498 25.1849 16.0454 23.573 16.2763 21.9209C16.5997 19.6078 16.4804 17.5933 16.4162 16.5109C16.4072 16.3595 16.3992 16.2267 16.3946 16.1221C16.9176 15.6583 19.3411 14.3599 21.0694 14.7559C21.858 14.9364 22.3386 15.4735 22.5384 16.3972C23.5724 21.1798 22.6752 23.1731 21.9543 24.775C21.8058 25.1049 21.6654 25.4169 21.5456 25.7395L21.4527 25.989C21.2175 26.6197 20.9986 27.2061 20.863 27.763C19.6823 27.7596 18.5338 27.2552 17.6604 26.3437V26.3438ZM17.8416 32.7936C17.4969 32.7075 17.1868 32.5579 17.0049 32.4339C17.1568 32.3624 17.4273 32.265 17.8963 32.1684C20.1659 31.7012 20.5165 31.3714 21.282 30.3995C21.4574 30.1766 21.6564 29.9241 21.9319 29.6164L21.9322 29.616C22.3425 29.1566 22.5302 29.2345 22.8706 29.3757C23.1464 29.4898 23.4152 29.8356 23.5241 30.2161C23.5756 30.3958 23.6335 30.7368 23.4441 31.0023C21.8451 33.2412 19.515 33.2124 17.8416 32.7936ZM29.7199 43.8471C26.9433 44.442 25.9602 43.0253 25.3123 41.4057C24.8942 40.3601 24.6886 35.6451 24.8344 30.4382C24.8363 30.3689 24.8264 30.302 24.8074 30.2391C24.7903 30.1147 24.7644 29.9918 24.7298 29.8711C24.513 29.1135 23.9846 28.4798 23.3507 28.217C23.0988 28.1127 22.6366 27.9212 22.0811 28.0633C22.1996 27.5753 22.405 27.024 22.6277 26.4272L22.7212 26.1762C22.8263 25.8932 22.9584 25.6 23.0979 25.2896C23.8523 23.6137 24.8855 21.3181 23.7642 16.1323C23.3442 14.1899 21.9416 13.2413 19.8154 13.4617C18.5407 13.5936 17.3745 14.1078 16.7928 14.4028C16.6677 14.4661 16.5534 14.5273 16.4465 14.5869C16.6089 12.6298 17.2222 8.97236 19.5165 6.65827C20.9612 5.20154 22.8851 4.48202 25.2291 4.52082C29.8477 4.59638 32.8095 6.96663 34.481 8.94189C35.9214 10.6438 36.7013 12.3584 37.0126 13.2832C34.6718 13.0451 33.0798 13.5071 32.2728 14.6609C30.5171 17.1707 33.2333 22.0419 34.5387 24.383C34.7782 24.8121 34.9848 25.1829 35.0498 25.3405C35.4749 26.3707 36.0252 27.0586 36.427 27.5606C36.5502 27.7145 36.6697 27.8637 36.7606 27.9941C36.0516 28.1985 34.7782 28.6707 34.8942 31.0312C34.8006 32.2157 34.135 37.7611 33.7969 39.7204C33.3505 42.3088 32.398 43.2729 29.7199 43.8472V43.8471ZM41.3098 30.584C40.5848 30.9205 39.3716 31.1728 38.2192 31.2271C36.9462 31.2867 36.2982 31.0845 36.1457 30.9601C36.0742 29.4891 36.6217 29.3354 37.2012 29.1727C37.2922 29.1472 37.381 29.1222 37.4668 29.0922C37.5201 29.1356 37.5784 29.1787 37.6424 29.2209C38.6655 29.8962 40.4904 29.969 43.0667 29.4372L43.095 29.4316C42.7474 29.7564 42.1528 30.1924 41.3098 30.584Z" fill="white"/>
</svg>
